<svg width="595" height="180" viewBox="0 0 595 180" fill="none" xmlns="http://www.w3.org/2000/svg">
<path d="M279.554 60.26C280.904 60.26 281.894 60.35 282.524 60.53C286.034 61.16 288.464 63.095 289.814 66.335C290.894 69.755 290.894 72.59 289.814 74.84C289.634 75.38 289.319 75.605 288.869 75.515C288.689 75.335 288.599 75.2 288.599 75.11C289.499 70.88 288.779 67.505 286.439 64.985C284.459 63.185 281.669 62.645 278.069 63.365C268.709 65.705 259.889 70.115 251.609 76.595C247.289 80.105 244.544 83.075 243.374 85.505C243.284 85.865 243.149 86.135 242.969 86.315C242.429 87.485 242.834 88.43 244.184 89.15C244.364 89.15 244.499 89.195 244.589 89.285C246.569 89.825 249.314 90.05 252.824 89.96C254.624 89.87 257.279 89.645 260.789 89.285C266.909 88.655 271.454 88.385 274.424 88.475C274.694 88.475 275.099 88.475 275.639 88.475C276.629 88.475 277.349 88.565 277.799 88.745C278.519 89.375 278.564 90.095 277.934 90.905C270.734 98.645 265.559 105.71 262.409 112.1C260.159 117.05 258.899 120.92 258.629 123.71C258.539 126.23 259.124 127.895 260.384 128.705C261.914 129.335 263.849 129.065 266.189 127.895C270.149 125.735 274.559 122.045 279.419 116.825C280.139 116.105 283.469 112.19 289.409 105.08C290.939 103.28 292.289 101.75 293.459 100.49C295.619 98.51 296.744 97.52 296.834 97.52C297.374 97.16 297.914 96.935 298.454 96.845C299.084 96.575 299.489 96.71 299.669 97.25C299.669 97.52 299.669 97.7 299.669 97.79C299.309 98.06 298.769 98.465 298.049 99.005C297.329 99.455 296.834 99.815 296.564 100.085C294.674 101.885 291.119 106.115 285.899 112.775C284.729 114.215 283.739 115.43 282.929 116.42C277.439 122.45 273.389 126.455 270.779 128.435C270.239 128.795 269.744 129.155 269.294 129.515C265.604 131.765 262.589 132.755 260.249 132.485C257.999 132.305 256.424 130.91 255.524 128.3C255.434 128.03 255.344 127.805 255.254 127.625C254.534 123.755 255.344 119.03 257.684 113.45C260.834 105.89 266.054 98.555 273.344 91.445C271.814 91.625 269.564 91.895 266.594 92.255C260.744 92.975 256.334 93.425 253.364 93.605C248.414 93.605 245.174 93.335 243.644 92.795C243.104 92.615 242.654 92.435 242.294 92.255C240.224 91.355 239.189 89.645 239.189 87.125C239.189 86.765 239.189 86.495 239.189 86.315C239.909 83.255 241.979 80.15 245.399 77C251.969 71.15 259.079 66.605 266.729 63.365C272.219 61.295 276.494 60.26 279.554 60.26ZM316.968 58.235C317.328 58.325 317.508 58.82 317.508 59.72C314.718 77.54 313.188 90.05 312.918 97.25C312.468 103.73 313.143 110.3 314.943 116.96C315.213 117.95 315.123 118.58 314.673 118.85C313.413 118.76 312.378 117.905 311.568 116.285C310.128 113.135 309.318 107.96 309.138 100.76C309.138 99.68 309.138 98.825 309.138 98.195C306.798 102.515 305.403 105.08 304.953 105.89C302.973 108.5 301.533 110.075 300.633 110.615C300.363 110.795 300.138 110.93 299.958 111.02C298.428 111.83 297.078 111.47 295.908 109.94C295.638 109.49 295.458 109.085 295.368 108.725C294.378 103.325 295.863 98.51 299.823 94.28C300.453 93.56 301.083 92.975 301.713 92.525C303.963 90.455 306.303 89.96 308.733 91.04C309.003 91.22 309.228 91.4 309.408 91.58C309.588 90.68 309.723 89.6 309.813 88.34C311.073 76.01 312.648 67.145 314.538 61.745C315.438 59.855 315.933 58.91 316.023 58.91C316.383 58.55 316.698 58.325 316.968 58.235ZM307.248 93.065C306.978 93.155 306.753 93.2 306.573 93.2C303.963 94.19 301.848 96.44 300.228 99.95C298.968 103.64 298.518 106.25 298.878 107.78C299.058 108.23 299.463 108.185 300.093 107.645C302.073 105.935 304.368 102.425 306.978 97.115C307.698 95.765 308.283 94.685 308.733 93.875C308.643 93.425 308.148 93.155 307.248 93.065ZM337.343 92.93C337.883 93.02 338.333 93.29 338.693 93.74C340.763 97.16 340.763 100.85 338.693 104.81C338.513 105.17 338.333 105.44 338.153 105.62C337.253 107.6 335.678 108.455 333.428 108.185C332.978 108.095 332.573 108.005 332.213 107.915C330.323 107.015 328.883 104.855 327.893 101.435C326.993 103.685 326.138 105.485 325.328 106.835C324.608 108.365 323.528 108.995 322.088 108.725C321.908 108.725 321.773 108.68 321.683 108.59C320.333 107.78 319.613 106.16 319.523 103.73C319.793 100.13 320.198 97.835 320.738 96.845C320.828 96.665 320.873 96.53 320.873 96.44C321.143 95.72 321.638 95.495 322.358 95.765C322.628 95.855 322.808 95.99 322.898 96.17C323.078 97.25 323.078 98.825 322.898 100.895C322.808 103.325 322.853 105.125 323.033 106.295C324.203 105.215 325.148 103.865 325.868 102.245C326.858 100.085 327.398 98.195 327.488 96.575C327.578 95.585 327.983 95 328.703 94.82C329.423 95 329.873 95.765 330.053 97.115C330.863 100.805 331.583 103.055 332.213 103.865C332.483 104.315 332.708 104.63 332.888 104.81C333.788 105.89 334.823 105.98 335.993 105.08C336.263 104.9 336.443 104.72 336.533 104.54C338.693 101.66 338.918 98.375 337.208 94.685C336.758 93.785 336.803 93.2 337.343 92.93ZM362.948 88.475C363.308 88.565 363.623 88.79 363.893 89.15C363.893 89.78 363.803 92.39 363.623 96.98C363.623 97.61 363.623 98.15 363.623 98.6C363.623 98.87 363.758 98.735 364.028 98.195C364.298 97.655 364.433 97.385 364.433 97.385C366.413 94.055 368.303 92.03 370.103 91.31C371.633 90.77 372.803 91.175 373.613 92.525C373.703 92.615 373.793 92.705 373.883 92.795C374.333 93.875 374.243 94.595 373.613 94.955C373.163 94.955 372.713 94.46 372.263 93.47C371.813 92.84 371.363 92.525 370.913 92.525C369.923 92.795 368.798 93.74 367.538 95.36C366.098 97.43 364.883 100.04 363.893 103.19C363.713 103.64 363.398 105.305 362.948 108.185C362.408 109.535 361.958 110.3 361.598 110.48C360.698 110.66 360.068 110.03 359.708 108.59C359.708 108.41 359.708 108.275 359.708 108.185C359.618 107.735 359.663 104.585 359.843 98.735C359.933 98.195 359.978 97.745 359.978 97.385C359.618 97.925 359.123 98.78 358.493 99.95C357.143 102.38 356.018 104.09 355.118 105.08C353.948 106.25 352.823 106.52 351.743 105.89C351.113 104.99 350.843 103.325 350.933 100.895C350.663 101.255 350.213 101.84 349.583 102.65C349.043 103.46 348.638 104.045 348.368 104.405C346.748 106.295 345.443 107.33 344.453 107.51C343.283 107.69 342.473 107.15 342.023 105.89C342.023 105.71 341.978 105.575 341.888 105.485C341.708 103.145 342.383 100.58 343.913 97.79C345.623 95.09 347.288 93.515 348.908 93.065C350.258 92.615 351.248 93.155 351.878 94.685C352.058 94.955 352.148 95.18 352.148 95.36C352.148 95.9 352.283 96.17 352.553 96.17C352.643 96.08 352.733 95.99 352.823 95.9C353.363 95.45 353.768 95.54 354.038 96.17C354.128 96.35 354.173 96.485 354.173 96.575C353.723 100.265 353.543 102.74 353.633 104C354.983 102.74 356.153 101.3 357.143 99.68C359.483 95.36 360.878 92.39 361.328 90.77C361.868 89.51 362.273 88.79 362.543 88.61C362.723 88.61 362.858 88.565 362.948 88.475ZM349.988 95.495C349.808 95.585 349.628 95.675 349.448 95.765C347.648 97.925 346.388 100.4 345.668 103.19C345.578 104 345.533 104.405 345.533 104.405C345.713 104.225 345.848 104.09 345.938 104C347.018 103.19 348.368 101.66 349.988 99.41C349.988 99.32 350.123 99.14 350.393 98.87C350.753 98.42 350.978 98.06 351.068 97.79C351.068 97.61 351.023 97.385 350.933 97.115C350.663 96.215 350.348 95.675 349.988 95.495ZM396.334 58.235C396.694 58.325 396.874 58.82 396.874 59.72C394.084 77.54 392.554 90.05 392.284 97.25C391.834 103.73 392.509 110.3 394.309 116.96C394.579 117.95 394.489 118.58 394.039 118.85C392.779 118.76 391.744 117.905 390.934 116.285C389.494 113.135 388.684 107.96 388.504 100.76C388.504 99.68 388.504 98.825 388.504 98.195C386.164 102.515 384.769 105.08 384.319 105.89C382.339 108.5 380.899 110.075 379.999 110.615C379.729 110.795 379.504 110.93 379.324 111.02C377.794 111.83 376.444 111.47 375.274 109.94C375.004 109.49 374.824 109.085 374.734 108.725C373.744 103.325 375.229 98.51 379.189 94.28C379.819 93.56 380.449 92.975 381.079 92.525C383.329 90.455 385.669 89.96 388.099 91.04C388.369 91.22 388.594 91.4 388.774 91.58C388.954 90.68 389.089 89.6 389.179 88.34C390.439 76.01 392.014 67.145 393.904 61.745C394.804 59.855 395.299 58.91 395.389 58.91C395.749 58.55 396.064 58.325 396.334 58.235ZM386.614 93.065C386.344 93.155 386.119 93.2 385.939 93.2C383.329 94.19 381.214 96.44 379.594 99.95C378.334 103.64 377.884 106.25 378.244 107.78C378.424 108.23 378.829 108.185 379.459 107.645C381.439 105.935 383.734 102.425 386.344 97.115C387.064 95.765 387.649 94.685 388.099 93.875C388.009 93.425 387.514 93.155 386.614 93.065ZM454.534 52.16C454.894 52.16 455.254 52.205 455.614 52.295C457.414 53.105 458.404 54.95 458.584 57.83C458.674 61.61 457.729 68.315 455.749 77.945C455.389 80.105 455.074 81.905 454.804 83.345C459.124 81.635 463.039 80.285 466.549 79.295C467.809 75.155 469.069 71.33 470.329 67.82C473.029 60.98 474.874 56.66 475.864 54.86C476.854 53.33 477.619 52.475 478.159 52.295C478.339 52.295 478.474 52.295 478.564 52.295C479.284 52.475 479.374 53.06 478.834 54.05C475.864 61.61 472.984 69.71 470.194 78.35C473.344 77.81 475.774 77.495 477.484 77.405C480.544 77.585 482.254 77.72 482.614 77.81C483.154 77.9 483.379 78.215 483.289 78.755C483.109 79.025 482.929 79.205 482.749 79.295C478.069 79.385 474.604 79.61 472.354 79.97C472.174 80.06 471.814 80.15 471.274 80.24C470.464 80.42 469.924 80.6 469.654 80.78C467.854 86.99 466.414 93.38 465.334 99.95C464.164 106.34 463.759 113.18 464.119 120.47C464.119 120.65 464.119 121.01 464.119 121.55C464.119 122.36 464.254 122.945 464.524 123.305C464.794 123.125 465.064 123.17 465.334 123.44C465.244 124.79 464.974 125.735 464.524 126.275C463.714 126.995 462.904 126.77 462.094 125.6C462.004 125.42 461.914 125.285 461.824 125.195C461.374 123.575 461.014 121.19 460.744 118.04C460.294 109.04 462.004 96.89 465.874 81.59C461.554 82.94 457.684 84.335 454.264 85.775C451.114 99.905 448.144 110.075 445.354 116.285C444.994 117.095 444.679 117.815 444.409 118.445C441.349 124.205 438.604 128.03 436.174 129.92C434.464 131.18 432.844 131.81 431.314 131.81C429.964 131.9 428.839 131.225 427.939 129.785C426.769 127.085 426.904 124.205 428.344 121.145C428.434 120.425 428.839 120.155 429.559 120.335C429.739 120.425 429.874 120.515 429.964 120.605C429.964 121.145 429.874 121.955 429.694 123.035C429.604 124.385 429.559 125.375 429.559 126.005C429.829 127.535 430.369 128.39 431.179 128.57C433.879 127.4 436.399 124.835 438.739 120.875C442.789 114.215 446.389 104 449.539 90.23C449.629 89.6 449.809 88.79 450.079 87.8C446.929 89.24 444.094 90.725 441.574 92.255C441.124 92.435 440.539 92.795 439.819 93.335C439.099 93.785 438.559 94.1 438.199 94.28C437.659 94.64 437.299 94.505 437.119 93.875C437.029 93.515 437.074 93.2 437.254 92.93C439.234 91.31 443.374 88.925 449.674 85.775C450.034 85.595 450.349 85.415 450.619 85.235C451.969 78.485 452.914 73.76 453.454 71.06C453.544 70.07 453.769 68.63 454.129 66.74C455.029 62.33 455.479 59 455.479 56.75C455.389 55.4 454.984 54.545 454.264 54.185C452.644 53.915 451.114 54.725 449.674 56.615C447.424 59.765 446.254 63.185 446.164 66.875C446.344 67.415 446.119 67.73 445.489 67.82C445.219 67.73 444.994 67.595 444.814 67.415C444.544 64.625 445.264 61.52 446.974 58.1C448.954 54.41 451.474 52.43 454.534 52.16ZM481.434 88.205C482.064 88.295 482.334 88.655 482.244 89.285C480.354 93.155 479.319 95.45 479.139 96.17C478.959 96.89 478.869 97.565 478.869 98.195C478.959 99.365 479.184 100.04 479.544 100.22C481.254 99.5 483.099 98.15 485.079 96.17C485.529 95.72 486.114 95.045 486.834 94.145C488.724 92.255 490.209 90.95 491.289 90.23C493.449 89.06 495.294 89.15 496.824 90.5C498.804 92.75 499.974 96.35 500.334 101.3C504.474 99.41 508.164 98.33 511.404 98.06C513.564 98.06 514.644 98.06 514.644 98.06C514.914 98.24 515.139 98.375 515.319 98.465C515.949 98.915 515.904 99.365 515.184 99.815C515.004 99.905 514.824 99.995 514.644 100.085C509.874 99.725 505.104 100.67 500.334 102.92C500.334 104.9 500.244 106.7 500.064 108.32C499.074 115.97 496.869 121.775 493.449 125.735C492.009 127.535 490.299 128.435 488.319 128.435C486.609 128.525 485.259 127.805 484.269 126.275C483.369 124.475 483.279 121.91 483.999 118.58C485.799 112.19 490.119 107.015 496.959 103.055C497.229 99.005 496.689 95.54 495.339 92.66C494.979 91.67 494.214 91.265 493.044 91.445C491.874 91.985 490.254 93.38 488.184 95.63C487.914 95.99 487.464 96.53 486.834 97.25C484.224 100.22 482.019 102.02 480.219 102.65C478.779 103.37 477.474 103.055 476.304 101.705C476.214 101.435 476.124 101.255 476.034 101.165C474.954 98.555 475.269 95.54 476.979 92.12C478.419 89.6 479.904 88.295 481.434 88.205ZM496.959 105.35V104.81C494.079 106.7 491.739 108.68 489.939 110.75C486.879 114.53 485.304 118.355 485.214 122.225C485.304 124.205 485.979 125.33 487.239 125.6C488.679 125.15 490.119 124.025 491.559 122.225C494.169 118.355 495.969 112.73 496.959 105.35ZM535.719 51.485C536.709 51.665 537.474 52.43 538.014 53.78C538.374 55.22 538.419 58.055 538.149 62.285C537.789 66.245 536.709 71.42 534.909 77.81C532.749 84.2 530.274 89.915 527.484 94.955C527.304 97.295 527.304 100.4 527.484 104.27C527.844 109.58 528.339 113 528.969 114.53C529.149 114.8 529.284 115.025 529.374 115.205C529.554 115.655 529.869 115.835 530.319 115.745C531.399 114.575 532.479 112.685 533.559 110.075C534.549 107.015 535.044 105.215 535.044 104.675C535.134 101.795 535.449 99.68 535.989 98.33C537.159 95.54 538.599 93.785 540.309 93.065C541.479 92.795 542.424 92.84 543.144 93.2C544.224 94.19 544.314 95.72 543.414 97.79C542.424 100.13 540.849 101.75 538.689 102.65C538.599 103.82 538.554 104.72 538.554 105.35C538.914 108.14 539.589 110.03 540.579 111.02C541.389 111.65 542.424 111.605 543.684 110.885C545.124 109.895 547.104 107.69 549.624 104.27C550.434 103.19 551.109 102.335 551.649 101.705C552.819 100.265 553.989 99.725 555.159 100.085C555.879 100.265 556.059 100.67 555.699 101.3C555.519 101.57 555.339 101.705 555.159 101.705C554.349 101.615 553.629 101.93 552.999 102.65C552.369 103.46 551.469 104.675 550.299 106.295C548.499 108.905 547.059 110.75 545.979 111.83C543.999 114.17 541.839 115.07 539.499 114.53C537.699 113.9 536.304 112.055 535.314 108.995C534.954 110.525 534.279 112.46 533.289 114.8C532.119 117.14 530.814 118.355 529.374 118.445C527.574 118.445 526.179 117.275 525.189 114.935C524.469 112.685 523.974 108.5 523.704 102.38C522.264 104.72 521.094 106.34 520.194 107.24C518.124 109.22 516.459 110.3 515.199 110.48C513.759 110.57 512.724 109.85 512.094 108.32C512.004 108.05 511.959 107.78 511.959 107.51C511.509 103.91 512.589 99.77 515.199 95.09C516.729 92.75 518.124 91.22 519.384 90.5C521.274 89.78 522.804 90.14 523.974 91.58C524.424 86.09 524.964 81.14 525.594 76.73C527.124 66.83 529.014 59.72 531.264 55.4C531.444 55.04 531.624 54.725 531.804 54.455C533.244 52.475 534.549 51.485 535.719 51.485ZM535.854 53.915C535.674 54.005 535.539 54.095 535.449 54.185C534.369 55.715 533.199 58.865 531.939 63.635C530.139 70.565 528.789 78.935 527.889 88.745C527.799 89.735 527.799 90.23 527.889 90.23C528.069 90.14 528.204 90.005 528.294 89.825C530.904 84.425 533.019 78.665 534.639 72.545C535.539 68.315 536.169 64.67 536.529 61.61C536.709 58.73 536.754 56.75 536.664 55.67C536.394 54.68 536.124 54.095 535.854 53.915ZM521.814 92.93C521.454 92.93 520.914 93.29 520.194 94.01C519.024 95.63 517.854 97.835 516.684 100.625C515.694 103.955 515.379 106.205 515.739 107.375C516.459 107.015 516.954 106.745 517.224 106.565C518.934 105.215 520.824 102.92 522.894 99.68C523.524 98.87 523.794 97.925 523.704 96.845C523.704 95.045 523.074 93.74 521.814 92.93ZM542.199 95.765C542.199 95.585 542.199 95.405 542.199 95.225C542.199 95.045 542.199 94.91 542.199 94.82C540.939 96.44 539.949 98.33 539.229 100.49C540.759 99.32 541.749 97.745 542.199 95.765Z" fill="black"/>
<rect x="199.473" width="1.13985" height="180" fill="black" fill-opacity="0.4"/>
<path d="M71.6034 113.77H72.9034V136H14.6634V134.96H22.9834V44.09H14.6634V43.05H71.9934V65.28H70.6934C70.6934 61.8133 70.0867 58.4767 68.8734 55.27C67.7467 51.9767 66.0134 49.29 63.6734 47.21C61.42 45.13 58.56 44.09 55.0934 44.09H40.7934V89.59H48.0734C51.02 89.59 53.62 88.81 55.8734 87.25C58.2134 85.69 60.4234 83.6533 62.5034 81.14V99.08C60.25 96.3067 57.9967 94.2267 55.7434 92.84C53.5767 91.3667 51.02 90.63 48.0734 90.63H40.7934V134.96H56.0034C59.47 134.96 62.33 133.92 64.5834 131.84C66.9234 129.76 68.6567 127.117 69.7834 123.91C70.9967 120.617 71.6034 117.237 71.6034 113.77ZM114.494 134.96V136H80.0442V134.96H88.3642V44.09H80.0442V43.05H114.494V44.09H106.174V89.59H133.604V44.09H125.284V43.05H159.734V44.09H151.414V134.96H159.734V136H125.284V134.96H133.604V90.63H106.174V134.96H114.494Z" fill="black"/>
</svg>
