<svg viewBox="0 0 1033 215" fill="none" xmlns="http://www.w3.org/2000/svg">
<path d="M901 70H969.5V82.7H942.3V149.3H928.7V82.7H901V70ZM788 70V82.7H733V103.1H777.3V115.7H733V136.7H788V149.3H719.5V70H788.2H788ZM822.3 70H804.5L868.3 149.4H886.2L854.2 109.7L886.2 70.1H868.3L845.3 98.7L822.3 70.1V70ZM840.6 126.7L831.6 115.7L804.5 149.4H822.3L840.6 126.7Z" fill="black"/>
<path d="M720 149.3L656 70H639V149.3H652.6V87L702.8 149.3H720ZM972.6 148.9C971.6 148.9 970.8 148.5 970.1 147.9C969.4 147.3 969 146.3 969 145.3C969 144.3 969.3 143.5 970 142.8C970.7 142.1 971.6 141.8 972.6 141.8C973.6 141.8 974.4 142.1 975.1 142.8C975.686 143.334 976.066 144.057 976.176 144.842C976.285 145.627 976.117 146.426 975.7 147.1C975.387 147.624 974.95 148.063 974.426 148.377C973.903 148.691 973.31 148.871 972.7 148.9H972.6ZM995.8 115.4H1001.8V138.7C1001.8 140.8 1001.4 142.7 1000.5 144.2C999.598 145.709 998.278 146.925 996.7 147.7C995.1 148.5 993.2 149 991 149C989 149 987.3 148.6 985.7 148C984.1 147.4 982.9 146.2 982 144.8C981.1 143.5 980.6 141.8 980.6 139.8H986.6C986.7 140.6 986.9 141.4 987.3 142C987.7 142.6 988.3 143.2 988.9 143.5C989.6 143.9 990.4 144 991.3 144C992.3 144 993.1 143.8 993.7 143.4C994.406 142.979 994.964 142.35 995.3 141.6C995.6 140.8 995.8 139.8 995.8 138.6V115.5V115.4ZM1026.7 124.5C1026.64 123.834 1026.43 123.191 1026.08 122.619C1025.73 122.047 1025.26 121.562 1024.7 121.2C1023.41 120.408 1021.91 120.024 1020.4 120.1C1019.1 120.1 1018 120.3 1017.1 120.6C1016.2 121 1015.5 121.6 1015.1 122.2C1014.65 122.756 1014.37 123.437 1014.32 124.153C1014.27 124.868 1014.43 125.583 1014.8 126.2C1015.1 126.7 1015.5 127.1 1016.1 127.4L1017.9 128.4L1019.9 128.9L1023.1 129.7C1024.4 130 1025.6 130.4 1026.8 130.9C1027.95 131.346 1029.02 131.952 1030 132.7C1030.96 133.481 1031.74 134.474 1032.26 135.601C1032.78 136.728 1033.03 137.959 1033 139.2C1033 141.2 1032.5 142.9 1031.5 144.3C1030.4 145.863 1028.87 147.078 1027.1 147.8C1025.3 148.6 1023 149 1020.3 149C1017.7 149 1015.4 148.6 1013.5 147.8C1011.5 147 1010.1 145.8 1009 144.3C1007.89 142.645 1007.3 140.694 1007.3 138.7H1013.3C1013.34 139.735 1013.69 140.733 1014.32 141.557C1014.94 142.381 1015.81 142.99 1016.8 143.3C1017.8 143.7 1019 143.9 1020.2 143.9C1021.5 143.9 1022.7 143.7 1023.7 143.3C1024.7 142.9 1025.5 142.3 1026.1 141.6C1026.62 140.908 1026.9 140.065 1026.9 139.2C1026.9 138.3 1026.7 137.6 1026.2 137C1025.56 136.454 1024.85 135.985 1024.1 135.6L1020.9 134.6L1017.1 133.6C1014.3 132.9 1012.1 131.9 1010.5 130.4C1009.7 129.688 1009.07 128.807 1008.66 127.821C1008.24 126.835 1008.05 125.769 1008.1 124.7C1008.08 122.889 1008.68 121.126 1009.8 119.7C1010.87 118.151 1012.37 116.938 1014.1 116.2C1016.1 115.4 1018.1 115 1020.5 115C1022.8 115 1024.9 115.4 1026.7 116.2C1028.5 117 1029.9 118.2 1031 119.6C1032 121 1032.5 122.6 1032.5 124.6H1026.7V124.5Z" fill="black"/>
<rect x="575" y="106" width="30" height="5" rx="2.5" fill="black"/>
<path d="M45.0746 150.864C41.4479 150.864 39.6346 149.413 39.6346 146.512C39.6346 146.331 39.6346 146.104 39.6346 145.832C39.7253 145.56 39.8159 145.197 39.9066 144.744C40.9039 140.755 41.8106 135.405 42.6266 128.696C43.5333 121.896 44.3039 113.691 44.9386 104.08C45.4826 96.5547 46.0266 90.2987 46.5706 85.312L47.6586 74.432C40.4959 75.52 32.9706 77.6053 25.0826 80.688C23.0879 81.4133 21.3199 81.776 19.7786 81.776C17.3306 81.776 15.0639 81.096 12.9786 79.736C10.9839 78.376 9.39726 76.3813 8.21859 73.752C8.76259 71.7573 9.75993 70.2613 11.2106 69.264C12.7519 68.2667 14.8373 67.2693 17.4666 66.272C30.2506 61.648 44.6666 59.3813 60.7146 59.472C64.6133 59.472 68.5573 59.5627 72.5466 59.744C76.6266 59.8347 80.7519 60.0613 84.9226 60.424C89.0933 60.7867 92.4026 61.0587 94.8506 61.24C97.2986 61.3307 98.8853 61.4213 99.6106 61.512L109.131 62.192H111.035C111.851 62.192 112.803 63.0533 113.891 64.776C113.891 66.952 112.259 68.2667 108.995 68.72C104.915 69.1733 101.424 69.5813 98.5226 69.944C95.6213 70.216 93.3093 70.4427 91.5866 70.624C89.8639 70.7147 88.3226 70.8053 86.9626 70.896C85.6026 70.9867 84.4693 71.0773 83.5626 71.168C80.0266 71.3493 76.9439 71.5307 74.3146 71.712C71.6853 71.8933 69.4639 72.0747 67.6506 72.256C66.1999 72.3467 65.0666 72.4373 64.2506 72.528C63.4346 72.6187 62.7999 73.1173 62.3466 74.024C61.8933 74.9307 61.4399 76.744 60.9866 79.464C60.6239 84.9947 59.6719 94.832 58.1306 108.976C57.4053 115.323 56.8159 120.672 56.3626 125.024C55.9093 129.376 55.5919 132.731 55.4106 135.088C55.3199 136.357 55.1386 137.808 54.8666 139.44C54.5946 141.072 54.1866 142.795 53.6426 144.608C53.1893 146.149 52.8266 147.373 52.5546 148.28C52.2826 149.096 51.6479 149.685 50.6506 150.048C49.6533 150.411 47.7946 150.683 45.0746 150.864ZM125.618 149.504C123.08 149.504 120.36 149.323 117.458 148.96C114.557 148.597 111.61 147.645 108.618 146.104C105.717 144.563 102.816 142.024 99.9145 138.488C97.0131 134.952 94.2478 130.011 91.6185 123.664C91.2558 122.213 90.9838 120.808 90.8025 119.448C90.6211 118.088 90.5305 116.728 90.5305 115.368C90.5305 111.107 91.7091 107.661 94.0665 105.032C96.5145 102.403 100.413 99.9093 105.762 97.552C110.749 95.4667 115.282 94.424 119.362 94.424C122.445 94.424 125.346 94.8773 128.066 95.784C136.77 98.504 141.122 102.221 141.122 106.936C141.122 109.928 139.354 113.555 135.818 117.816C134.73 119.085 133.461 120.264 132.01 121.352C130.65 122.44 128.882 123.619 126.706 124.888C124.621 126.157 121.81 127.789 118.274 129.784C117.277 130.419 115.781 130.781 113.786 130.872C112.789 130.963 111.928 131.053 111.202 131.144C110.568 131.235 110.069 131.325 109.706 131.416C110.432 134.408 112.154 136.675 114.874 138.216C117.594 139.757 120.632 140.528 123.986 140.528C126.797 140.528 129.381 139.893 131.738 138.624C135.002 136.901 137.904 134.861 140.442 132.504C142.165 130.781 143.797 129.92 145.338 129.92C146.336 129.92 147.197 130.419 147.922 131.416C148.648 132.685 149.01 134.136 149.01 135.768C149.01 137.581 148.648 138.987 147.922 139.984C145.565 143.611 142.482 146.104 138.674 147.464C134.957 148.824 130.605 149.504 125.618 149.504ZM108.754 121.08C111.928 118.723 114.738 116.592 117.186 114.688C119.634 112.693 121.674 110.971 123.306 109.52C123.85 108.976 124.122 107.979 124.122 106.528C124.122 105.531 124.077 104.896 123.986 104.624C123.805 104.171 123.488 103.763 123.034 103.4C122.4 103.128 122.037 102.947 121.946 102.856C120.314 102.675 118.501 103.264 116.506 104.624C114.512 105.984 112.562 107.843 110.658 110.2C108.754 112.467 107.077 115.096 105.626 118.088C106.352 121.443 107.394 122.44 108.754 121.08ZM246.56 157.664C244.565 158.208 242.933 157.709 241.664 156.168C239.76 153.901 238.218 150.411 237.04 145.696C236.677 144.427 236.269 142.432 235.816 139.712C235.453 136.992 234.954 133.547 234.32 129.376C234.32 122.757 232.053 120.355 227.52 122.168C225.253 126.792 223.757 130.555 223.032 133.456C222.669 134.907 222.306 136.267 221.944 137.536C221.581 138.805 221.218 139.939 220.856 140.936C218.589 146.195 216.64 149.051 215.008 149.504C213.466 149.867 211.2 148.235 208.208 144.608C208.208 142.341 208.117 139.848 207.936 137.128C207.845 134.317 207.709 131.235 207.528 127.88C206.984 121.352 204.944 119.04 201.408 120.944C197.781 122.848 195.197 125.976 193.656 130.328C192.205 134.68 191.117 139.44 190.392 144.608C190.301 145.515 190.029 146.512 189.576 147.6C189.213 148.688 188.578 149.549 187.672 150.184C186.765 150.819 185.405 151 183.592 150.728C181.778 150.365 180.509 149.776 179.784 148.96C179.149 148.053 178.741 147.011 178.56 145.832C178.378 144.653 178.197 143.475 178.016 142.296C177.653 139.757 177.381 137.4 177.2 135.224C177.018 133.048 176.973 131.053 177.064 129.24C177.064 127.427 176.973 125.659 176.792 123.936C176.701 122.213 176.474 120.581 176.112 119.04C176.021 118.315 175.613 117.227 174.888 115.776C174.162 114.235 170.853 111.787 164.96 108.432C163.328 106.891 162.557 105.395 162.648 103.944C162.738 102.403 163.373 101.269 164.552 100.544C166.365 99.456 168.314 98.912 170.4 98.912C173.029 98.912 175.522 99.6827 177.88 101.224C180.237 102.765 182.005 104.488 183.184 106.392C183.728 107.299 184.181 108.115 184.544 108.84C184.906 109.475 185.178 110.019 185.36 110.472C185.813 111.469 186.312 111.968 186.856 111.968C187.49 111.968 188.125 111.515 188.76 110.608L191.616 107.344C194.245 104.533 196.784 102.675 199.232 101.768C201.68 100.771 204.581 100.771 207.936 101.768C211.29 102.856 213.285 104.669 213.92 107.208L216.504 117.272L220.72 108.976C222.624 106.256 224.664 104.533 226.84 103.808C229.106 103.083 231.282 102.992 233.368 103.536C235.544 104.08 237.402 105.032 238.944 106.392C240.485 107.661 241.528 108.976 242.072 110.336L246.152 121.216C246.877 123.029 247.512 125.613 248.056 128.968C248.69 132.232 249.234 135.813 249.688 139.712C250.232 143.52 250.685 147.192 251.048 150.728C251.138 150.909 251.184 151.408 251.184 152.224C251.184 155.035 249.642 156.848 246.56 157.664ZM270.628 194.52C269.268 195.517 268.226 195.336 267.5 193.976C266.775 192.616 266.231 190.395 265.868 187.312C265.596 184.32 265.46 180.739 265.46 176.568C265.551 172.397 265.687 168.045 265.868 163.512C266.05 158.979 266.231 154.536 266.412 150.184C266.684 145.832 266.82 141.933 266.82 138.488C266.82 135.587 266.956 132.685 267.228 129.784C267.591 126.792 267.908 123.755 268.18 120.672C268.18 119.947 267.908 119.131 267.364 118.224C266.911 117.317 266.503 116.592 266.14 116.048C264.69 114.416 264.463 112.739 265.46 111.016C266.911 108.115 268.588 105.667 270.492 103.672C272.487 101.677 275.026 100.091 278.108 98.912C281.735 97.552 285.316 96.5093 288.852 95.784C292.388 95.0587 296.015 95.1947 299.732 96.192C302.09 96.8267 304.447 97.688 306.804 98.776C309.162 99.864 311.383 101.088 313.468 102.448C316.007 103.989 317.458 106.029 317.82 108.568C318.183 111.107 317.412 113.827 315.508 116.728C313.332 119.811 310.975 122.848 308.436 125.84C305.988 128.832 303.45 131.779 300.82 134.68C298.01 137.581 294.7 140.029 290.892 142.024C288.988 142.931 287.039 143.611 285.044 144.064C283.05 144.517 280.738 145.016 278.108 145.56C278.108 148.643 277.927 152.043 277.564 155.76C277.292 159.477 277.156 163.331 277.156 167.32C277.156 170.131 277.383 173.077 277.836 176.16C278.29 179.333 278.335 182.28 277.972 185C277.61 187.811 276.159 190.213 273.62 192.208L270.628 194.52ZM279.468 135.768C279.831 135.587 280.194 135.496 280.556 135.496C280.919 135.405 281.146 135.269 281.236 135.088C284.5 133.728 287.084 132.323 288.988 130.872C290.983 129.421 292.751 127.699 294.292 125.704C295.924 123.709 297.738 121.307 299.732 118.496C302.362 114.779 303.359 112.104 302.724 110.472C302.09 108.749 299.687 107.525 295.516 106.8C291.799 105.984 288.716 106.12 286.268 107.208C283.82 108.296 282.279 110.608 281.644 114.144C281.282 116.411 280.874 118.813 280.42 121.352C279.967 123.8 279.65 126.203 279.468 128.56C279.287 129.648 279.242 130.781 279.332 131.96C279.423 133.139 279.468 134.408 279.468 135.768ZM350.897 154.808H346.817C344.913 154.808 341.966 153.629 337.977 151.272C335.62 148.371 334.441 145.651 334.441 143.112C334.441 132.504 334.396 123.211 334.305 115.232C334.305 107.253 334.26 100.589 334.169 95.24L334.033 71.304C334.033 69.7627 333.942 68.2667 333.761 66.816C333.67 65.2747 333.444 63.8693 333.081 62.6C332.99 62.328 332.945 61.784 332.945 60.968C332.945 57.6133 335.212 55.936 339.745 55.936C342.737 55.936 345.23 56.9333 347.225 58.928C349.31 60.832 350.262 63.3707 350.081 66.544C349.99 68.9013 349.809 71.8933 349.537 75.52C349.356 79.1467 349.174 83.3627 348.993 88.168L348.177 104.488C347.814 112.195 347.497 118.949 347.225 124.752C347.044 130.464 346.862 135.269 346.681 139.168C346.59 140.075 346.636 141.072 346.817 142.16C346.998 143.248 347.134 143.928 347.225 144.2L348.585 144.744C350.398 142.477 351.713 140.755 352.529 139.576C353.526 138.216 354.569 137.536 355.657 137.536C356.745 137.536 357.561 138.216 358.105 139.576C359.374 143.384 360.009 146.24 360.009 148.144C360.009 149.232 359.964 149.912 359.873 150.184C359.51 151.997 358.468 153.267 356.745 153.992C355.113 154.717 353.164 154.989 350.897 154.808ZM414.626 157.664C413.266 157.664 411.861 157.211 410.41 156.304C409.957 155.941 409.549 155.624 409.186 155.352C408.914 155.171 408.687 155.035 408.506 154.944C408.143 154.853 407.69 154.083 407.146 152.632L406.058 150.048L405.378 146.92C402.839 147.464 400.799 147.917 399.258 148.28C397.807 148.552 396.855 148.733 396.402 148.824C395.767 148.915 395.178 148.96 394.634 148.96C394.181 148.96 393.773 148.96 393.41 148.96C391.778 148.96 389.919 148.824 387.834 148.552C385.839 148.189 383.845 147.419 381.85 146.24C379.855 144.971 378.087 143.112 376.546 140.664C375.095 138.125 374.007 134.68 373.282 130.328C373.373 127.245 374.506 124.48 376.682 122.032C381.578 116.229 386.429 114.008 391.234 115.368C393.319 115.821 395.405 116.547 397.49 117.544C398.578 118.088 399.938 118.723 401.57 119.448C403.202 120.173 405.151 121.035 407.418 122.032L407.962 118.224C408.597 113.872 408.869 111.243 408.778 110.336C408.778 107.797 408.098 105.667 406.738 103.944C405.378 102.221 404.381 101.405 403.746 101.496C402.567 101.677 401.389 101.904 400.21 102.176C399.031 102.357 397.853 102.584 396.674 102.856C394.498 103.491 391.279 103.808 387.018 103.808C385.93 103.808 384.842 103.4 383.754 102.584C382.666 101.677 382.167 100.68 382.258 99.592C382.53 98.0507 383.346 96.4187 384.706 94.696C385.613 93.608 386.746 93.0187 388.106 92.928C389.013 92.7467 389.783 92.656 390.418 92.656C391.143 92.5653 391.778 92.4747 392.322 92.384C395.133 91.7493 397.581 91.296 399.666 91.024C401.842 90.752 403.655 90.616 405.106 90.616C409.277 90.616 412.677 91.84 415.306 94.288C418.026 96.6453 419.885 99.8187 420.882 103.808C421.426 105.803 421.607 108.251 421.426 111.152C421.335 111.877 421.29 112.784 421.29 113.872C421.29 114.96 421.245 116.229 421.154 117.68C421.063 118.859 420.927 120.309 420.746 122.032C420.655 123.755 420.474 125.795 420.202 128.152C419.93 130.419 419.703 132.413 419.522 134.136C419.431 135.768 419.341 137.173 419.25 138.352C419.159 139.168 419.114 140.211 419.114 141.48C419.114 142.659 419.114 144.019 419.114 145.56L419.25 156.576C417.346 157.301 415.805 157.664 414.626 157.664ZM392.866 137.944C393.047 137.944 393.274 137.944 393.546 137.944C393.909 137.853 394.271 137.763 394.634 137.672C396.81 137.037 398.759 136.312 400.482 135.496C402.295 134.589 403.746 133.275 404.834 131.552C401.57 129.013 398.895 127.245 396.81 126.248C394.815 125.251 393.002 124.752 391.37 124.752C390.735 124.752 389.965 124.888 389.058 125.16C388.151 125.432 387.471 125.84 387.018 126.384C386.202 127.291 385.794 128.696 385.794 130.6C385.794 132.232 386.111 133.637 386.746 134.816C388.287 136.901 390.327 137.944 392.866 137.944ZM466.462 154.128C463.289 154.128 460.161 153.403 457.078 151.952C453.995 150.592 451.91 148.779 450.822 146.512C449.371 143.429 448.011 139.984 446.742 136.176C445.473 132.277 444.203 127.971 442.934 123.256C442.662 121.987 442.39 120.309 442.118 118.224C441.846 116.048 441.619 113.555 441.438 110.744L441.03 105.712C440.939 103.627 440.939 101.995 441.03 100.816C441.211 99.728 439.443 99.048 435.726 98.776C434.366 98.5947 433.686 97.688 433.686 96.056C434.593 92.9733 435.998 91.2507 437.902 90.888C440.441 90.344 441.801 89.1653 441.982 87.352C441.982 85.6293 442.118 83.816 442.39 81.912C442.843 79.0107 443.07 75.928 443.07 72.664C443.161 69.3093 443.115 65.8187 442.934 62.192C442.753 58.7467 443.795 56.752 446.062 56.208L447.286 56.344C447.649 56.4347 448.691 56.5707 450.414 56.752C452.227 57.024 453.678 57.4773 454.766 58.112C457.939 59.9253 459.526 62.9627 459.526 67.224C459.526 68.856 459.163 71.2133 458.438 74.296L457.622 76.744C457.35 78.104 457.214 79.2373 457.214 80.144C456.398 82.864 457.033 84.224 459.118 84.224C459.481 84.224 460.115 84.1333 461.022 83.952C461.929 83.68 463.107 83.3173 464.558 82.864C465.011 82.6827 466.009 82.5467 467.55 82.456C469.182 82.2747 470.633 82.184 471.902 82.184C474.441 82.184 476.753 83.7707 478.838 86.944L477.07 88.304C474.985 89.8453 471.993 91.024 468.094 91.84C465.827 92.928 463.923 93.88 462.382 94.696C460.931 95.512 459.707 96.6907 458.71 98.232C457.713 99.7733 456.67 102.267 455.582 105.712C455.582 106.8 455.854 109.611 456.398 114.144L457.078 119.856C457.531 123.301 457.894 126.339 458.166 128.968C458.529 131.507 458.801 133.592 458.982 135.224C459.163 135.949 459.345 136.856 459.526 137.944C459.798 138.941 460.342 139.757 461.158 140.392C462.065 141.027 463.606 141.163 465.782 140.8C469.409 136.539 471.766 133.501 472.854 131.688L474.214 129.376C474.849 128.288 476.254 127.155 478.43 125.976L479.79 126.248C481.241 126.701 482.374 127.381 483.19 128.288C484.097 129.195 484.55 130.509 484.55 132.232C484.55 133.139 484.505 133.728 484.414 134C483.87 137.627 482.601 140.891 480.606 143.792C478.611 146.693 475.982 149.549 472.718 152.36C471.539 153.539 469.454 154.128 466.462 154.128ZM527.372 151.136C521.388 150.864 516.265 149.413 512.004 146.784C507.833 144.064 504.569 140.664 502.212 136.584C499.855 132.413 498.495 127.925 498.132 123.12C497.86 118.315 498.676 113.645 500.58 109.112C502.121 105.667 504.388 102.629 507.38 100C510.372 97.3707 514.225 95.92 518.94 95.648C522.385 95.4667 525.831 95.4667 529.276 95.648C532.721 95.8293 536.031 96.6907 539.204 98.232C542.105 99.4107 543.964 101.587 544.78 104.76C545.687 107.843 545.143 110.744 543.148 113.464C540.609 117 538.161 120.672 535.804 124.48C533.447 128.288 531.089 132.051 528.732 135.768C527.372 137.219 526.919 138.216 527.372 138.76C527.825 139.304 528.777 139.531 530.228 139.44C531.769 139.259 533.401 139.032 535.124 138.76C536.937 138.397 538.433 138.171 539.612 138.08C540.156 137.899 541.199 137.627 542.74 137.264C544.372 136.901 545.868 136.584 547.228 136.312C548.679 136.04 549.404 135.995 549.404 136.176C550.129 136.901 550.356 137.4 550.084 137.672C549.903 137.853 549.812 138.443 549.812 139.44C549.812 140.165 549.313 141.253 548.316 142.704C547.409 144.064 546.503 145.152 545.596 145.968C544.508 146.965 542.831 147.963 540.564 148.96C538.297 149.957 535.94 150.683 533.492 151.136C531.044 151.589 529.004 151.589 527.372 151.136ZM517.716 132.096C520.073 128.107 522.521 124.072 525.06 119.992C527.599 115.821 530.047 111.787 532.404 107.888C531.769 107.525 531.271 107.253 530.908 107.072C530.545 106.891 530.183 106.8 529.82 106.8C525.105 106.619 521.343 107.525 518.532 109.52C515.721 111.515 513.817 113.963 512.82 116.864C511.913 119.765 511.868 122.667 512.684 125.568C513.5 128.379 515.177 130.555 517.716 132.096Z" fill="black"/>
</svg>
